<svg viewBox="0 0 46 46" xmlns="http://www.w3.org/2000/svg" aria-hidden="true" focusable="false">
  <path d="M23 9.823c3.66 0 6.17 1.586 7.59 2.915l5.53-5.53C32.7 3.163 28.35 1 23 1 13.799 1 5.754 6.777 2.317 14.705l6.469 5.02C10.767 13.55 16.315 9.823 23 9.823z" fill="#EA4335" />
  <path d="M44.508 24.5c0-1.572-.142-3.064-.406-4.5H23v8.508h12.128c-.522 2.818-2.11 5.206-4.52 6.812l7.035 5.454C42.02 36.8 44.508 31.165 44.508 24.5z" fill="#4285F4" />
  <path d="M8.786 27.275A13.735 13.735 0 016.75 23a13.735 13.735 0 012.036-4.275L2.317 13.705C.825 17.007 0 20.735 0 24.5s.825 7.493 2.317 10.795l6.469-5.02z" fill="#FBBC05" />
  <path d="M23 45c6.23 0 11.467-2.07 15.29-5.617l-7.035-5.454c-2.047 1.38-4.672 2.183-8.255 2.183-6.685 0-12.233-3.726-14.214-9.397L2.317 35.295C5.754 43.223 13.799 49 23 49c5.35 0 9.7-2.163 12.09-4.238l-5.53-5.53C29.17 34.677 26.66 33.09 23 33.09c-6.685 0-12.233-3.726-14.214-9.397L2.317 35.295C5.754 43.223 13.799 49 23 49z" fill="#34A853" />
</svg>
